<?xml version="1.0" encoding="UTF-8" standalone="no"?>
<svg xmlns="http://www.w3.org/2000/svg" version="1.1" viewbox="0 0 1200 300" fill="currentColor">
    <path d="m 920.7,268.6 77.3,1 c 0,0 22,-6 22,-30.5 0,-26 0,-54 -2,-63.3 -3,-9.5 -20,-118.9 -24,-122.9 -4,-3.9 -226.3,-5 -226.3,-5 l -2,-4.2 -78,0 -3,2.1 -142,0 -5,-6.4 -71.7,0 -8.6,3.5 -249.3,1.5 c 0,0 -16.4,-2.2 -18.5,12.1 -2.2,14.3 -8.6,188.6 -6.5,194.1 2.2,5 135,20 209.3,17 0,0 -1.1,-59.5 52.9,-59.5 58.5,0 51.4,58.5 51.4,58.5 l 326,-1 c 0,0 -12,-57.5 50,-57.5 61,0 48,60.5 48,60.5 z" />
	<circle cx="446" cy="257" r="43" />
	<circle cx="872" cy="257" r="43" />
</svg>
