<?xml version="1.0" encoding="UTF-8" standalone="no"?>
<svg xmlns="http://www.w3.org/2000/svg" version="1.1" viewbox="0 0 1200 300" fill="currentColor">
    <path d="m 936.2,175 c-12,0.1-26,-7.1-26,-7.1 0,0 11,27.8 28,27.8 3.2,0 4.7,-0.9 6.7,-1.4 6,-8.6 13.6,-19.4 24.6,-19.4 20.3,0 20.9,18.7 34.5,18.7 16,0 19,-23.1 33,-23.1 15,0 24,22.1 39,22.1 12,0 19,-9.9 29,-14.3-10,-6.6-3,-14.7-12,-14.7-13,0-17,15.5-29,15.3-12,-0.2-10,-19.6-19,-19.6-11,0-15,13.2-27,13.2-13,0-10,-13.5-20.4,-13.5-15.6,0-17.8,7-35.5,7-12,0-16.5,8.9-25.9,9 z m 26.7,-13 c 18.7,-1.1 19.9,-7 34.7,-7 14.4,0 9.4,12.5 20.4,12.5 11,0 15,-13.2 27,-13.2 12,0 11,19.6 19,19.6 9,0 15,-15.3 29,-15.3 18,0 4,17.3 24,17.3 18,0 17,-15.5 33,-15.5 14,0 13,17.8 28,17.8 19,0 10,-24.6 30,-24.6 26,0 12,-46.1-4,-47-14,0-17,11.8-29,11.8-12,0-20,-15.6-27,-15.6-8,0-11,16.3-24,16.3-12,0-10,-13.2-24,-13.2-14,0-16,26.7-30,26.7-14,0-5,-14-19,-14-14,0-18,17.6-32,17.6-14,0-8,-7-20,-7-13.1,0-23.2,18.6-34.9,18.6-11.8,0-8.2,-4.3-19.8,-4.3-11.7,0-21.5,18.1-21.5,18.1 0,0 10.2,-5 18.6,-5 7.7,0 13.4,5.9 21.5,5.4 z m 247.1,-3.5 c-18,1.2-8,24.7-32,24.7-18,0-21,-17.8-28,-17.8-10,0-13,11.1-23,14 10,7.7 4,30.2 22,30.2 18,0 29,-19.4 45,-19.3 9,0 14,7 18,13.3 z m-173,17 c-10,0-13,23.1-33,23.1-18.8,0-17.4,-19-34.8,-19-15.1,0-25.1,35.7-42.7,35.7-19.7,0-7.2,-19.8-26.9,-19.8-19.7,0-25.5,24.9-45.5,24.9-19.9,0-10.2,-9.9-28.3,-9.9-18.2,0-32.4,26.4-49,26.4-16.7,0-11.6,-6.1-28.1,-6.1-16.6,0-30.5,25.8-30.5,25.8 0,0 10.3,-4.9 20.6,-6.5 4.3,-3 8.3,-5.1 15.3,-5.1 17.1,0 15.7,18.1 24.8,18.1 25,0 22.5,-35.2 45.1,-36.2 16.3,-0.7 21.2,19.2 34.3,19.2 16.2,0 19.1,-23.6 33.3,-23.6 17.6,0 22,22.1 38.8,22.1 16.9,0 23,-16.7 41.2,-16.7 20.6,0 16.7,33.7 31.4,33.7 18,0 28,-19.3 45,-19.3 20,0 17,29.1 35,29.3 7,0.1 13,-4.1 19,-8 5,-10.2 9,-17.5 20,-17.5 20,0 27,25.5 38,25.5 11,0 13,-29.3 30,-29.3 7,0 8,4.1 15,4.1 8,0 7,-51.1-11,-51.1-14,0-27,19.3-45,19.3-28,0-12,-33.3-33,-33.3-16,0-22,16.3-40,16.3-19,0-27,-22.1-39,-22.1 z m-145.4,52 c-11.3,0-15.1,24.1-33.3,24.1-15.5,0-19.7,-19.7-34.3,-19.7-15.9,0-17.6,36.8-45.1,36.8-12.9,0-11,-19.1-24.8,-19.1-19.4,0-28.5,23-45.5,23-16.4,0-10.2,-10-28.3,-10-18.2,0-32.4,26-49,26-16.7,0-11.6,-6-28.1,-6-16.6,0-30.5,26-30.5,26 l 638.3,3.5 c 0,0 2,-11.5-1,-16.5-4,-6-10,-12-17,-12-14,0-16,8-31,8-17,0-30,-26-45,-26-14,0-19,10-34,10-22,0-19,-28.3-35,-28.3-14,0-24,20.1-45,20.1-19.7,0-15,-34.5-31.4,-34.5-16.5,0-21.1,16.7-41.2,16.7-20.5,0-24.4,-22.1-38.8,-22.1 z m 298.4,19.8 c-13,0-15,30.3-30,30.3-16,0-20,-25.9-38,-26-7,0-10,3.3-13,9 2,-0.6 5,-1 8,-1 17,0 29,26 45,26 15,0 17,-8 31,-8 22,0 22,24.9 21,-10.1-9,-4.9-13,-20.2-24,-20.2 z" />
    <path d="m-8,98.2 c-10.2,0-13.1,27.9-12.6,63.5 6.8,-6.6 16.4,-11.9 29.1,-11.9 22.8,0 25.6,25.2 40.3,25.2 13.7,0 27.3,-22.4 47.2,-22.4 26.4,0 14.7,25 33.2,25 19.1,0 32,-20.6 60.9,-20.6 29.3,0 31.5,23.7 55.8,23.7 19.4,0 30.6,-15 49.9,-15 17.7,0 29.2,14.5 45.8,18.1 5.8,-3.6 9.6,-8.3 17.8,-8.3 11.9,0 26.4,7.1 26.4,7.1 0,0-13.9,-25.6-30.5,-25.6-16.5,0-11.4,6.1-28.1,6.1-16.6,0-30.8,-26.4-49,-26.4-18.1,0-8.4,9.9-28.3,9.9-20,0-25.8,-24.9-45.5,-24.9-19.7,0-7.2,19.8-26.9,19.8-19.7,0-23.2,-37.9-43,-37.9-19.7,0-16.8,18.7-34.3,18.7-17.4,0-22.3,-23-33.2,-23-10.9,0-21.4,22-38.8,22-17.3,0-7.7,-23.1-36.1,-23.1 z M 8.3,154.9 c-13.4,-0.1-21.9,2.9-22.9,12.6-1.9,20.3-16,52 4,52 20.3,0 29.6,19.3 44.7,19.3 12.9,0 15.4,-33.7 31.7,-33.7 16.3,0 28.1,16.7 41.1,16.7 16.3,0 21.4,-22.1 38.9,-22.1 14.2,0 18.9,23.1 33.2,23.1 12.3,0 18.4,-18.7 34.3,-18.7 12.2,0 18.4,11.4 23.7,20.2 6.7,-3.3 11.3,-19.9 20.8,-19.9 14,0 22.3,14.5 33.4,14.5 12.1,0 7.3,-25.2 23.8,-25.2 12.7,0 20.3,11.7 29.9,12.4 12.9,-9.6 24.9,-26.6 24.9,-26.6 0,0-16.9,9.9-26.4,9.6-18.6,-0.6-32.6,-18.3-47.9,-18.3-16.5,0-30,15-49.9,15-27.7,0-31.7,-23.7-55.8,-23.7-27.6,0-39.3,20.6-60.9,20.6-22.2,0-10.8,-25-33.2,-25-17.4,0-29,22.4-47.2,22.4-20.8,0-19.5,-25.1-40.3,-25.2 z M 375.1,192.1 c-11.7,0-15.8,19-29,19-12.6,0-20.1,-12.4-30.8,-12.4-11.4,0-7,25.2-23.8,25.2-13.5,0-20.5,-14.5-33.4,-14.5-8.9,0-11.6,21.2-25.7,21.2-11,0-17.1,-8.2-25.6,-8.2-11.7,0-20.9,19.8-33.5,20-8.9,0.1-15.4,-6.2-23.2,-6.2-8,0-11.1,7.9-15.4,13.4 4,-1 7.7,-2.5 14.5,-2.5 10.5,0 17.6,10.5 26.6,10.5 9.9,0 19.2,-12.8 29.9,-12.8 12.9,0 16,16.9 26.8,16.8 13.6,-0.1 16.4,-18.3 28.2,-18.3 11.6,0 15.5,22.3 22.6,22.3 11.6,0 14.2,-19.5 28.3,-19.5 18.1,0 11.1,23.8 31.5,25.5 18,1.5 16.1,-18 30.2,-18 14.3,0 17.3,16.2 35.2,16 11.3,-0.1 17.8,-15.9 24.9,-16 17.8,-0.3 20.2,17 30.5,17 10.1,0 8.7,-21 20.5,-21 11.8,0 12.6,14 28.7,14 16.1,0 7.8,-13 21.2,-13 13.2,0 26.3,8 36.6,8 10.4,0 14,-9 22.9,-9 8.9,0 19.8,5 19.8,5 0,0-10.4,-19.3-22.8,-19.3-12.4,0-8.6,4.6-21.1,4.6-12.4,0-23,-19.7-36.6,-19.7-13.5,0-6.3,7.4-21.1,7.4-15,0-19.3,-18.7-34.1,-18.7-14.7,0-5.4,14.8-20.1,14.8-14.7,0-17.3,-28.3-32.1,-28.3-14.8,0-12.6,14-25.7,14-13,0-13.2,-17.3-24.9,-17.3 z m-229,12.6 c-14.9,0-19.6,22.1-38.9,22.1-16.9,0-25.8,-16.7-41.1,-16.7-12.1,0-14.7,33.7-31.7,33.7-17.7,0-29.7,-19.2-44.7,-19.3-15,-0.2-12.6,85.2 5.6,85.2 25.1,0 73.9,-0.1 108,-0.1 23.6,0.7 26.6,-22 43.4,-22 18.3,0 22.3,20 44.1,20 20.7,-0.2 17.9,-26 33.3,-26 14.1,0 26.9,10 37.7,10 11.6,0 17.5,-16 30.5,-16 15.6,0 23.2,20 38.3,20 17.9,0 18.2,-18 28.4,-18 22.8,0 21.7,10 48.9,10 13.7,0 20.4,-12 30.7,-12 7.4,0 14.5,3 19.9,5-5.1,-7.8-15.9,-18.7-24,-19-10,-0.4-11.5,13.6-25.9,13.6-18.5,0-26.5,-17.6-35.2,-17.6-8.8,0-10.4,19.1-30.2,19.1-21.8,0-17.7,-25.1-31.5,-25.1-13.1,0-12.4,18-28.3,18-12.9,0-13.6,-21-22.6,-21-9.2,0-12.3,17-28.2,17-14.6,0-16.4,-16-26.8,-16-10.4,0-16.6,12-29.9,12-13.7,0-18,-9.9-26.6,-10-8.8,-0.1-16.7,4-24.3,8 4.1,-12 13.8,-28.3 25.2,-28.4 8.9,-0.1 16.6,6.2 23.2,6.2 9.9,0 21.3,-20.1 33.5,-20 11.1,0.1 16.6,8.1 25.4,8.2-4.4,-7.1-10.4,-16.5-18.6,-16.5-12.9,0-22.2,18.7-34.3,18.7-18.2,0-21.6,-23.1-33.2,-23.1 z m 146.1,76.9 c-12.3,0.4-16.4,16-30.5,16-18.4,0-19.3,-10-37.7,-10-10.5,0-9,21.7-27.6,23.8 34.1,0.1 67.3,0.2 94.9,0.2 12.1,0 17.2,-7.8 19.3,-19.1-6.2,-5.4-11.6,-11.1-18.4,-10.9 z m-145.6,10 c-10.1,0-15.9,15.4-28.4,19.4 20.3,0.1 45.3,0.2 66.4,0.3-14.9,0-26.4,-19.7-38,-19.7 z"/>
</svg>