<?xml version="1.0" encoding="UTF-8" standalone="no"?>
<svg xmlns="http://www.w3.org/2000/svg" version="1.1" viewbox="0 0 1200 300" stroke="currentColor" stroke-width="7">
    <path d="m 748,75.8 -12.5,110 -37.8,0 c 0,0 -25.8,41.9 -63.2,41.9 -29.4,0 28.8,-13.1 28.8,-36.4 0,-23.2 0,-36.8 0,-36.8 l 35.4,0 7.5,-59.6 c 0,0 -30.2,-14.7 -52.5,-14.7 -6,-10.1 42.8,-32.2 94.3,-4.4 z" fill="currentColor" />
    <path d="M 583.5,228.7 714.3,246 c 0,0 7.1,9 -1.1,9 l -132,0 m -12.5,-12.7 c 0,7.3 5.8,13.1 13.1,13.1 7.3,0 13.1,-5.8 13.1,-13.1 0,-7.3 -5.8,-13.1 -13.1,-13.1 -7.3,0 -13.1,5.8 -13.1,13.1 z M 735.5,184.8 C 735,265 704.2,269 678.5,208 M 663.6,153.1 656.2,81.7 M 715.3,250 582,241.8 m 26.8,-77.2 -27.3,78.2 -60.6,-53.5 5,-12.6 79.3,0 25.3,67.9 M 484.4,250 c 22.1,-6.2 34.2,-50.9 47.8,-100.2 3.8,-14 22.5,-3.9 22.5,-3.9 m 107.6,101.8 c 0,28 22.7,50.7 50.7,50.7 28,0 50.7,-22.7 50.7,-50.7 0,-28 -22.7,-50.7 -50.7,-50.7 -28,0 -50.7,22.7 -50.7,50.7 z m -227,0.1 c 0,28 22.7,50.7 50.7,50.7 28,0 50.7,-22.7 50.7,-50.7 0,-28 -22.7,-50.7 -50.7,-50.7 -28,0 -50.7,22.7 -50.7,50.7 z" fill="none" />
    <path d="m 620.4,160.5 c 0,-10.9 -60.4,-1.9 -21.2,4.1 20.2,3.1 21.2,3.1 21.2,-4.1 z" fill="currentColor" />
</svg>
