<?xml version="1.0" encoding="UTF-8" standalone="no"?>
<svg xmlns="http://www.w3.org/2000/svg" version="1.1" viewbox="0 0 1200 300" fill="currentColor">
<path d="m -2,213.3 43.9,-13.8 0,-8.2 3.81,-1.4 19.56,4 -0.18,10.3 36.04,7.2 0,-7.9 4.2,-1.6 18,3.7 0,21.4 71.2,-7.1 c 0,0 -4.3,-89.7 17.1,-148.8 33.5,-28.3 89.7,-24.28 89.7,-24.28 0,0 -2.6,7.79 -2.1,16.53 0,0.71 29.9,9.89 29.9,9.89 l 0.7,10.72 21.1,-1.07 10.4,-6.8 c 0,0 23.5,69.03 18.9,139.6 l 51.8,10 -0.5,-50.8 c 0,0 56,28.8 166.1,18.9 0,0 0.5,-20.2 0.5,-29.2 124.1,-6.1 181.7,-58.8 181.7,-58.8 l 0,35.6 50.8,16.5 0,60.7 49.6,-35 0,-60 48.9,-21.8 c 0,0 37.7,-17.26 65.1,4.1 l 36,29.2 c 0,0 -19,10.6 -19,24.9 0,16.1 0,26.4 0,26.4 l 105,0 0,-87.47 16,-30 71,79.27 0,156.1 -88,0 0,-30.7 -69,0 0,30 -1048.54,0 z" />
</svg>
