<?xml version="1.0" encoding="UTF-8" standalone="no"?>
<svg xmlns="http://www.w3.org/2000/svg" version="1.1" viewbox="0 0 1200 300" fill="currentColor">
<path d="m 748,230.3 c 43.4,0 36.6,51 36.6,51 0,0 28.3,0.5 32.6,-2 4.2,-2.5 6.9,-3.7 5,-10.1 -1.7,-5.8 3,-3 3,-17.2 0,-14.1 -7.5,-40 -61.1,-45.9 -69.4,-7.6 -101,-48 -153.8,-51 -30.8,-1.8 -104.5,-7.8 -152.8,16.1 -38.2,18.9 -71.6,15.5 -71.6,15.5 0,0 0.5,30.9 -5.2,39.2 -3.5,5.1 -7,5.7 -7,5.7 0,0 -6.9,31.7 20.7,37.1 23.1,4.6 30.8,5.8 30.8,5.8 0,0 -3.4,-44.7 38.9,-44.7 42.3,0 38.2,50.3 38.2,50.3 l 206,1.2 c 0,0 -3.7,-51 39.7,-51 z"/>
<circle cx="464" cy="268" r="32" /><circle cx="748" cy="268" r="32" /></svg>
