<?xml version="1.0" encoding="UTF-8" standalone="no"?>
<svg xmlns="http://www.w3.org/2000/svg" version="1.1" viewbox="0 0 1200 300" fill="currentColor">
      <path d="m 391.5,259.6 -22.7,0 0,25 c 0,5.1 -1.3,9.1 -4.1,12 -2.8,2.9 -6.5,4.4 -11.2,4.4 l -27,0 -4.6,-15.3 c 6.5,0.4 15.3,0.6 26.3,0.6 3.3,0 4.9,-1.7 4.9,-5.1 l 0,-21.6 -101.1,0 0,45.8 -15.1,0 0,-45.8 -22.8,0 0,-14.7 22.8,0 0,-77.3 58.4,0 0,-18 -73.8,0 0,-14.64 163.2,0 0,14.64 -74.3,0 0,18 58.4,0 0,77.3 22.7,0 z m -38.4,-55 0,-22.5 -42.7,0 0,22.5 z m -57.8,0 0,-22.5 -43.3,0 0,22.5 z m 57.8,40.3 0,-25.8 -42.7,0 0,25.8 z m -57.8,0 0,-25.8 -43.3,0 0,25.8 z" />
      <path d="m 548.4,251.4 -15.1,0 0,-100.4 -75.6,0 0,100.4 -15.2,0 0,-115.07 105.9,0 z m 36.5,17 c -2.1,10.6 -4.7,18 -7.7,22.2 -3,4.3 -7.4,6.4 -13.3,6.4 l -48.4,0 c -9.7,0 -14.6,-6.4 -14.6,-19.1 l 0,-64.3 -0.6,0 c -0.7,45.5 -28.5,75.8 -83.6,90.8 l -11.2,-14.3 c 17.8,-3.3 32.8,-8.6 44.9,-16 12.2,-7.3 21.1,-16.7 26.9,-28 5.8,-11.3 8.7,-26.6 8.7,-45.9 l 0,-38.5 15.3,0 0,46.7 14.8,-0.4 0,69.5 c 0,2.3 0.4,3.6 1.1,4.1 0.7,0.5 2.3,0.7 4.9,0.7 l 39.4,0 c 2.4,0 4,-0.7 5,-2.2 0.9,-1.5 1.8,-4.2 2.5,-7.9 l 2.5,-11.5 z" />
      <path d="m 790.3,257.1 c -2.2,15.7 -5.1,26.5 -8.6,32.3 -3.4,5.8 -9.2,8.7 -17.4,8.7 l -31.2,0 c -12.7,0 -19,-6.5 -19,-19.6 l 0,-143.73 15.2,0 0,63.73 c 16.8,-4.7 31,-12.8 42.8,-24.2 l 11.2,11.1 c -11.9,12.5 -29.9,22.1 -54,28.8 l 0,62.2 c 0,4.4 2.7,6.6 8.2,6.6 l 24,0 c 3.7,0 6.4,-1.6 8.4,-4.7 1.9,-3.1 3.4,-12.8 4.6,-29 z m -106.6,46 -15.2,0 0,-22.5 -51.6,11.6 -7.2,-15.2 58.8,-12.3 0,-60.3 -49.7,0 0,-15.2 49.7,0 0,-54.04 15.2,0 z" />
      <path d="m 986.5,163.4 -171,0 0,-15.3 77,0 0,-19.97 15.8,0 0,19.97 78.2,0 z m -29.4,75.4 -47.8,0 0,50.9 c 0,4.9 -1.4,8.8 -4.2,11.8 -2.7,3 -6.4,4.5 -11.1,4.5 l -21,0 -5.3,-16.4 c 11,0.7 16.8,1.1 17.6,1.1 5.8,0 8.7,-1.8 8.7,-5.3 l 0,-46.6 -49.1,0 0,-59.4 112.2,0 z m -15.2,-14.7 0,-30.2 -81.8,0 0,30.2 z m 48.8,56.9 -10.4,11.4 c -19.6,-19.2 -38.7,-30.8 -57.3,-35.1 l 9.9,-12.2 c 19.7,5.9 38.9,17.8 57.8,35.9 z M 879.1,255.2 c -15,17 -34.6,29.7 -58.6,38.2 l -9.2,-13.6 c 25,-7 44.3,-18.5 57.7,-34.7 z" />
</svg>
