<?xml version="1.0" encoding="UTF-8" standalone="no"?>
<svg xmlns="http://www.w3.org/2000/svg" version="1.1" fill="currentColor" viewbox="0 0 1200 300">
  <path d="m 892.5,128.1 0,20 -77,0 0,15.3 171,0 0,-15.3 -78.2,0 0,-20 z m -178.4,6.7 0,143.7 c 0,13.1 6.3,19.6 19,19.6 l 31.2,0 c 8.2,0 14,-2.9 17.4,-8.7 3.5,-5.8 6.4,-16.6 8.6,-32.3 l -15.8,-7.8 c -1.2,16.2 -2.7,25.9 -4.6,29 -2,3.1 -4.7,4.7 -8.4,4.7 l -24,0 c -5.5,0 -8.2,-2.2 -8.2,-6.6 l 0,-62.2 c 24.1,-6.7 42.1,-16.3 54,-28.8 l -11.2,-11.1 c -11.8,11.4 -26,19.5 -42.8,24.2 l 0,-63.7 z m -492.6,0.2 0,14.6 73.8,0 0,18 -58.4,0 0,77.3 -22.8,0 0,14.7 22.8,0 0,45.8 15.1,0 0,-45.8 101.1,0 0,21.6 c 0,3.4 -1.6,5.1 -4.9,5.1 -11,0 -19.8,-0.2 -26.3,-0.6 l 4.6,15.3 27,0 c 11.1,-0.2 15.2,-7.7 15.3,-16.4 l 0,-25 22.7,0 0,-14.7 -22.7,0 0,-77.3 -58.4,0 0,-18 74.3,0 0,-14.6 z m 447,0.2 0,54 -49.7,0 0,15.2 49.7,0 0,60.3 -58.8,12.3 7.2,15.2 51.6,-11.6 0,22.5 15.2,0 0,-167.9 z m -226,1.1 0,115.1 15.2,0 0,-100.4 75.6,0 0,100.4 15.1,0 0,-115.1 z m 43.5,25.4 0,38.5 c 0,55.4 -24.7,76.7 -80.5,89.9 l 11.2,14.3 c 55.1,-15 82.9,-45.3 83.6,-90.8 l 0.6,0 0,64.3 c 0,12.7 4.9,19.1 14.6,19.1 l 48.4,0 c 5.9,0 10.3,-2.1 13.3,-6.4 3,-4.2 5.6,-11.6 7.7,-22.2 l -13.4,-7.7 -2.5,11.5 c -1.8,8.3 -2.7,10.1 -7.5,10.1 l -39.4,0 c -5.4,0 -6,-0.4 -6,-4.8 l 0,-69.5 -14.8,0.4 0,-46.7 z m 358.9,17.7 0,59.4 49.1,0 0,46.6 c 0,3.5 -2.9,5.3 -8.7,5.3 -0.8,0 -6.6,-0.4 -17.6,-1.1 l 5.3,16.4 21,0 c 10.1,-0.3 15.2,-6.8 15.3,-16.3 l 0,-50.9 47.8,0 0,-59.4 z m -592.9,2.7 43.3,0 0,22.5 -43.3,0 z m 58.4,0 42.7,0 0,22.5 -42.7,0 z m 549.7,11.8 81.8,0 0,30.2 -81.8,0 z m -608.1,25.2 43.3,0 0,25.8 -43.3,0 z m 58.4,0 42.7,0 0,25.8 -42.7,0 z m 558.6,26 c -13.4,16.2 -32.7,27.7 -57.7,34.7 l 9.2,13.6 c 24,-8.5 43.6,-21.2 58.6,-38.2 z m 63.9,0 -9.9,12.2 c 18.6,4.3 37.7,15.9 57.3,35.1 L 990.7,281 c -18.9,-18.1 -38.1,-30 -57.8,-35.9 z" />
</svg>
