<?xml version="1.0" encoding="UTF-8" standalone="no"?>
<svg xmlns="http://www.w3.org/2000/svg" xmlns:xlink="http://www.w3.org/1999/xlink" version="1.1" viewbox="0 0 1200 300" fill="currentColor">
	<path d="m 541.6,2 c -6.3,0 -1.1,6.2 -16.4,6.2 -5.1,0 5.9,9.3 -15.8,9.3 -5.8,0 -0.7,-10.4 -2.8,-10.4 -2.1,0 -7.3,3.8 -13.9,3.8 -6.6,0 4.4,6.8 -0.2,6.8 -3.5,0 -3.6,-6.1 -8,-6.1 -4.9,0 3.9,6.1 -0.3,6.1 -3,0 -3.1,-6.3 -7.6,-6.3 -4.6,0 2.9,6.3 -0.3,6.3 -4,0 -1.2,-5.8 -6.5,-5.8 -3.4,0 -2.2,5.9 -2.2,5.9 l -4.1,3.6 6.3,6.3 -2.3,2.2 0,6.8 -5.3,1.5 67.6,47.4 0,80.1 140.4,0 0,-80.1 67.6,-47.4 -5.3,-1.5 0,-6.8 -2.3,-2.2 6.3,-6.3 -4.1,-3.6 c 0,0 1.2,-5.9 -2.2,-5.9 -5.3,0 -2.5,5.8 -6.5,5.8 -3.2,0 4.3,-6.3 -0.3,-6.3 -4.5,0 -4.6,6.3 -7.6,6.3 -4.2,0 4.6,-6.1 -0.3,-6.1 -4.4,0 -4.5,6.1 -8,6.1 -4.6,0 6.4,-6.8 -0.2,-6.8 -6.6,0 -11.8,-3.8 -13.9,-3.8 -2.1,0 3,10.4 -2.8,10.4 -19.8,0 -10.3,-9.3 -15.4,-9.3 -15.3,0 -9.4,-6.2 -15.7,-6.2 -6.3,0 3.7,13.4 -4.7,13.4 L 544,15.4 C 535.6,15.4 547.9,2 541.6,2 z" id="path1" />
	<use x="234" y="30" xlink:href="#path1" />
	<use x="-232" y="30" xlink:href="#path1" />
	<path d="m 969.3,300 0,-97.5 7.5,0 3.5,-4.3 0,-11.8 -9.2,0 0,-3.8 48.9,-31.8 -5,-1.5 0,-6.9 -3,-2.2 7,-6.4 -4,-3.6 c 0,0 1,-6 -3,-6 -5,0 -2,5.8 -6,5.8 -3,0 4,-6.3 0,-6.3 -5,0 -5,6.3 -8,6.3 -4.1,0 5,-6.2 -0.3,-6.2 -4.3,0 -4.5,6.2 -8,6.2 -4.5,0 6.4,-6.8 -0.2,-6.8 -6.6,0 -11.8,-3.9 -13.9,-3.9 -2.1,0 3,10.5 -2.8,10.5 -5.8,0 2.6,-9.4 -3.4,-9.4 -13.7,-0.5 -6.5,-6.3 -12.5,-6.3 -6.3,0 0.7,13.4 -7.8,13.4 l -175.9,0 c -16,0 -15.3,-18.2 -15.3,-18.2 l -83.1,0.3 c 0,0 0.3,17.9 -15.7,17.9 -16.1,0 -59.1,0 -60.1,0 l 0,104.3 54.2,0.3 8.9,14.3 c 0,0 6.4,-3.6 13.8,-3.6 7.3,0 18.7,5.8 18.7,5.8 l 0,5 4.9,2.8 9.8,0 0,43.6 23.2,0 0,-25.7 13.2,-2.9 0,-5.7 c 0,0 2.7,-5.3 19.9,-5.3 17.3,0 14,2.8 14,2.8 l 7.5,-13.6 103.6,0 8.6,12.9 c 0,0 1.8,-2.9 10.7,-2.9 8.9,0 20.4,5.8 20.4,5.8 l 0,6.4 16.4,3.2 0,25 z" id="path2" />
	<use transform="matrix(-1,0,0,1,1200,0)" x="0" y="0" xlink:href="#path2" />
</svg>
