<?xml version="1.0" encoding="UTF-8" standalone="no"?>
<svg xmlns="http://www.w3.org/2000/svg" viewbox="0 0 1200 300" fill="currentColor">
    <path d="m 923.03,129.78 -12.61,1.12 -1.76,1.24 -0.44,7.48 -4.1,0.19 0,-8.43 -25.27,2.17 -2.29,0.9 -0.12,7.67 -3.75,0.19 0,-8.28 -24.19,2.15 -2.97,1.01 0,6.75 -3.22,0.18 -0.25,-7.5 -12.93,0.76 -2.07,1.38 0.75,23.86 -3.03,33.85 c 0,0 -11.09,4.56 -32.81,15.65 -21.72,11.13 -55.36,19.12 -78.22,21.26 -22.86,2.15 -97.31,-2.14 -114.81,-4.1 -17.5,-1.97 -39.66,-5.18 -41.63,-5.72 -35.85,-3.6 -67.83,-11.33 -103.75,-15.18 -12.86,-1.44 -76.06,-11.26 -76.06,-11.26 l -2.5,-29.81 0.19,-19.09 -4.66,-3.03 -13.41,-2.16 -0.87,10.53 -1.97,0 0.34,-8.94 -1.59,-2.31 -11.78,-1.43 -0.87,2.34 0,8.4 -1.22,-0.12 0.5,-7.31 -1.25,-4.07 -15.16,-2 0,11.38 -1.78,0 -0.5,-9.09 -1.75,-3.29 -15.16,-2.28 0,12.13 -1.53,-0.5 -0.5,-9.35 -1,-2.53 -17.69,-2.78 -18.93,1.25 0.25,12.13 -7.07,0 0,-12.13 -32.84,1.78 0.5,12.13 -6.81,-0.25 -0.18,-11.89 c 0,0 -30.34,0.63 -30.38,0.75 l -3,2.79 0,9.84 -7.35,-0.25 0.25,-11.35 -18.19,0.5 -4.59,3.6 -4.28,99.28 c -20.75,0.36 -40.05,11.92 -103.403,27.45 -34.279,8.4 -62.742,38.05 -62.742,38.05 L 1212,303.45 1210,277.29 C 1212.4,308.12 1009.1,251 1009.1,251 l -7.8,-94.44 -1.2,-21.72 -13.85,-0.9 -0.55,1.27 0.33,6.32 -1.35,0 -0.1,-7.68 -14.34,-0.93 -0.69,1.58 -0.25,6.26 -1.28,-0.19 0.25,-7.78 -12.69,-0.84 -0.93,1.85 -0.16,6.26 -1.12,0.15 0.28,-8.39 -15.94,-1.03 -0.96,1.74 0,6.66 -1.36,0 0,-8.53 z" />
</svg>
