<?xml version="1.0" encoding="UTF-8" standalone="no"?>
<svg xmlns="http://www.w3.org/2000/svg" version="1.1" viewbox="0 0 1200 300" fill="currentColor">
    <path d="M 79.09,61.5 48.72,164.4 87,167.1 115.2,60.82 z M 370,64.28 359.4,167.3 396.6,169 406.4,61.95 z m -106,-3.53 -29.4,1.53 -21.4,99.92 31.2,1.9 z m 741,0.84 -33.1,1.75 22.1,99.66 33,-0.8 z m -782.2,20.43 -28.2,137.18 3.2,32.4 -95,5 -2.3,-39.3 30.3,-133.6 -9.6,0.18 -3.4,-13 -26.39,99.02 7.31,73.9 -49.56,1.2 -5.75,-78.7 24.15,-83.42 -68.56,1 -3,132.32 44.78,0.5 1.23,32.9 -46.75,0 -1.312,58.5 1210.052,0 -1,-230.66 -39,-1.52 -3,-4.22 35,93.5 -12,74.6 -50,1.2 20,-75.6 -35,-98.27 -4,10.69 -16,0.47 31,140.81 -3,38.5 -90,-4 1,-35.9 -7,-36.9 -6,60.4 -45.9,-3.8 10.8,-69.6 -22.2,-103.66 -2,16.71 -22,1.38 28.8,137.57 0.7,34.8 -89.7,0 -2.3,-38 -5.7,-30.4 -2.3,56.8 -50.6,-2.2 7.2,-75.7 -15.7,-91.4 -2.5,17.25 -11.2,1.21 19.2,127.24 -1,36.2 -98,0 2.3,-35.2 -13.5,-132.33 -2.3,-0.15 -5.6,-23.35 12.2,101.43 4.1,74 -46.7,-1.3 3.1,-70.7 -10.7,-102.27 -1.9,20.15 -4.9,0.16 5.8,133.76 1.7,33.8 -102.4,1 4.4,-32.6 -1,-133.21 -4.3,0.13 -0.3,79.88 -0.5,75.3 -45.5,-3.4 2.1,-71.1 0.7,-96.84 -2.2,16.16 -10.6,-0.41 2,127.19 1,36.9 -94.5,3 -4.5,-38.5 10.9,-131.9 -8.4,-0.32 -0.9,-4.62 -8.6,90.64 3,76.1 -49.5,-2.2 -0.8,-74.9 8.1,-80.98 -3,0 -10.8,129.98 3.6,37.7 -98,-1 -0.6,-37.5 23.2,-128.28 -6.1,0.1 -3,-21.63 -19.6,99.91 2,74 -42.5,-4.5 -0.1,-74 19.9,-85.92 z m 931.2,-19.3 -31,0.84 35,98.54 31,0.9 z m -457.8,0 -27.9,0.75 10.9,102.43 29.1,-2.6 z m 154.1,3.97 -32.1,0.84 16.3,95.47 36.2,-0.8 -9.9,-48.5 z m -327.7,6.12 -0.9,95.29 33.4,-0.9 0.9,-93.54 z m 572.4,5.54 -81,2.34 18,83.41 11,51.7 81,2.7 z m -877.3,3.5 -81.8,1.65 -29,131.2 83.5,0 z m 720.9,0.62 -78,4.81 5.2,25.82 11.4,51 0.7,2.9 -1.2,0 10,49.8 79.6,2.7 z m -514.1,2.88 -9.6,131.25 85.7,-0.8 -1,-127.55 z m 227.2,0.78 -81.5,2.43 1,131.14 85.7,0 z m 62.8,2.18 14,131.39 84.5,-0.9 -17.7,-126.67 z m -360.1,0.63 -72.5,0.78 -23.1,127.98 84.7,0 z m 803.6,78.26 -18,68.6 40,-0.9 12,-66.8 z m -946.3,0 0.9,65.9 32.3,3.5 -2.7,-67.7 z m 659.5,0 -36.7,0.8 -6.5,68 40.4,1.8 z m 156.8,0 -33,0.8 -10.2,65.3 36.2,3.1 z m -319.2,1.1 -29.7,2.7 -2.8,62.9 36.3,0.9 z m -660.22,0.9 5.33,70.6 39.31,-0.8 -6.6,-67 z m 506.92,2.9 -33.9,1 -1.8,63 35.3,2.6 z m -196.3,0.2 0.9,67.7 39.3,1.8 -2.7,-67.7 z m -253.5,47.4 1.7,30.9 84.8,-3.5 -2.6,-27.4 z m 395.5,1 -86.3,1 2.4,27.9 85.3,-1 z m 542.8,0.1 -1,28.8 79,2.9 3,-28.9 z M -4.094,221.2 -4.625,245 36.81,245 36,221.7 z m 890.694,0.6 1.6,27.8 80.2,0 -0.8,-25 z m -628.4,0.9 0.8,27.9 87.8,1 -3.1,-28.5 z m 555.9,1.1 -86.5,0.9 -1.7,25.9 88,0 z m -243.2,0.9 -3.3,24.9 91.6,-1 -2,-23.9 z" />
</svg>