<?xml version="1.0" encoding="UTF-8" standalone="no"?>
<svg xmlns="http://www.w3.org/2000/svg" xmlns:xlink="http://www.w3.org/1999/xlink" version="1.1" viewBox="0 0 1200 300" fill="currentColor">
  <path
     d="m 795.4,70.66 c -45,0 -82.3,33.34 -88.2,76.54 5.9,0.8 11.7,2.3 17.2,4.4 4.2,-35.6 34.2,-63.14 71,-63.14 39.4,0 71.1,31.64 71.1,71.24 0,39.4 -31.7,71.1 -71.1,71.1 -32.2,0 -59.2,-21 -68.1,-50 -6.2,-3.4 -13,-5.7 -19.8,-6.9 6.8,42.4 43.6,74.8 87.9,74.8 49.1,0 89,-40 89,-89 0,-49.1 -39.9,-89.04 -89,-89.04 z"
     id="or" />
  <path
     d="m 697.4,150.8 c -1.5,0 -2.9,0 -4.2,0.1 0.2,3 0.5,5.9 0.5,8.9 0,3 -0.3,6 -0.5,8.9 1.3,-0.1 2.7,-0.1 4.2,-0.1 31.9,0 58.9,20.8 67.9,49.8 6.2,3.4 12.9,6 20,7.4 -6.8,-42.6 -43.6,-75 -87.9,-75 z m -30.7,5.4 c -34,12.5 -58.4,45.2 -58.4,83.5 0,49.1 39.9,89 89.1,89 44.7,0 81.8,-33 88,-76 -5.8,-0.7 -11.8,-1.9 -17.5,-3.8 -4.4,35.1 -34.2,62.1 -70.5,62.1 -39.5,0 -71.3,-31.9 -71.3,-71.3 0,-27.4 15.5,-51.2 38.2,-63.1 1.6,-5.4 2.5,-11 2.5,-16.8 0,-1.1 0,-2.4 -0.1,-3.6 z"
     id="ir" />
  <use x="-392" y="0" transform="rotate(259,404,160)" xlink:href="#or" />
  <use transform="matrix(-1,0,0,-1,1297,400)" xlink:href="#ir" />
  <use x="-196" y="0" xlink:href="#ir" />
</svg>
