<?xml version="1.0" encoding="UTF-8" standalone="no"?>
<svg xmlns="http://www.w3.org/2000/svg" version="1.1" viewbox="0 0 1200 300" fill="currentColor">
<path d="M 0,68.57 55,68.57 c 0,0 -15.98,-25.65 0,-25.65 7.77,0 5.97,9.53 5.97,9.53 l 6.83,2.17 c 0,0 -4.29,-9.56 1.96,-9.56 6.92,0 3.48,9.98 3.48,9.98 l 7.9,0.89 0.18,22.85 c 0,0 70.68,45.92 217.18,45.92 l 0,13.2 8.2,1.2 -8.2,4.8 c -23.8,15.8 -54,25.3 -54,25.3 l 0,15.1 c 0,0 63.6,23.3 158,24.3 l 0,11.2 4.3,2.7 -6.8,3.6 c -27,12.7 -76.2,18.8 -76.2,18.8 l 0,9.6 -5.6,0 0,50 -320.22,0 z" />
<path d="m 1038,101.5 c -85.2,0 -4,18 -32,23.7 -58.3,11.6 -27.2,21.2 -27.9,21.8 -8.6,6.4 -10.8,1.3 -30.1,4.9 -19.3,3.5 0,22.8 -21.4,20.7 -21.5,-2.2 -45,-11.6 -45,25.7 0,33.3 23.1,-1.6 27.9,10.9 2.9,7.3 -50.1,35.6 22.4,35.6 43.4,0 39,-37.9 54,-28.7 4.6,2.8 8.1,5 12.1,6.4 7,12.6 17,16.7 27,17.1 13,0.5 34,-36.9 50,-8.8 12,21.9 5,19.4 9,43.3 4,21 -9,28.6 2,64.4 0,0 16,5.6 20,0.6 -10,-26.7 -6,-55.9 -4,-73.8 5,-33.2 2,-36.4 2,-36.4 0,0 10,-11.6 21,-7.5 10,3.6 18,20.4 35,17.6 3,20 42,48.9 52,37.9 24,-26.1 39,-114.5 -4,-124.3 -43,-9.9 -43,-48.4 -96,-22.9 -32,15.3 5,-8.6 -3,-16.4 -7,-7.9 -23,-11.8 -71,-11.8 z m 87,69.8 c 3,-0.1 6,5.2 10,11.1 -18,13 -39,26.8 -41,15.7 15,0.1 21,-10.3 23,-15.9 3,-7.8 6,-10.8 8,-10.9 z m 13,17.5 c 3,3.9 6,7.3 9,8.8 17,7.3 25,17.3 15,32.8 -1,0.9 -1,1.9 -1,2.9 -1,0.1 -1,0.1 -2,0.2 -16,1.5 -17,-13.3 -32,-18.3 -14,-5.1 -26,4.1 -26,4.1 0,0 -3,-3.9 -1,-6.4 4,-5.2 19,-10.4 38,-24.1 z m -65,5.8 c 2,0 5,0.4 9,1.5 0,0.1 1,0.3 1,0.4 1,4.2 3,9.7 6,16.8 9,20 2,43 2,43 0,0 3,-13.5 -10,-31.4 -20,-29.1 -49,5.9 -55,6.6 -7,0.8 -13,-2.6 -17,-7.2 6,-0.1 15,-2 28,-5.9 26,-7.8 22,-23.4 36,-23.8 z" />
</svg>
