<svg xmlns="http://www.w3.org/2000/svg" width="1153" height="272.7" fill="#333">
<path d="m112.6,220.2 0,-79.8-26.75,0 0,-30.8 26.75,0 0,-22.9 c0,-26.46 16.2,-40.91 39.9,-40.91 11.3,0 21.2,0.84 24,1.22 l0,27.75-16.4,0 c -13,0-15.4,6.13-15.4,14.85 l0,19.99 30.7,0-3.9,30.8-26.8,0 0,79.8 c0.2,-0.5-32.7,0-32.1,0 z" />
<path d="m594.2,54.53 h -14.1 c5.5,4.45 16.3,13.02 16.3,30.85 0,17.32-10,25.52-19.9,33.22-3.1,3.1-6.7,6.3-6.7,11.5 0,5.1 3.5,7.9 6.1,10.1 l8.6,6.5 c10.5,8.7 20,16.6 20,32.8 0,22-22.3,44.5-63.2,44.5-34.5,0-50.4,-16.4-50.4,-33.7 0,-8.4 4.2,-20.4 18.3,-28.6 14.7,-8.9 34.7,-10.1 45.4,-10.8-3.3,-4.2-7.2,-8.6-7.2,-15.9 0,-4 1.2,-6.3 2.4,-9.1-2.6,0.2-5.2,0.4-7.6,0.4-25.2,0-39.4,-18.5-39.4,-36.73 0,-10.78 3.3,-23.48 13.5,-32.16 13.6,-10.99 30.9,-12.32 43.7,-12.32 l49.6,0-15.4,9.43 0,0 z m -62,106.77 c -5.2,1.8-20.4,7.4-20.4,24.1 0,16.6 16.4,28.5 41.8,28.5 22.8,0 34.9,-10.8 34.9,-25.2 0,-12-7.8,-18.3-25.9,-31-1.9,-0.2-3.1,-0.2-5.4,-0.2-2.2,0-15,0.5-25,3.8 l0,0 z M545.6,53.64 c -6.2,0-12.9,2.46-16.7,7.11-4.1,4.92-5.3,11.82-5.3,17.94 0,15.71 9.4,41.71 29.8,41.71 5.9,0 12.3,-3.4 16.2,-7.2 5.4,-5.4 5.9,-12.3 5.9,-16.5 0,-16.86-10.2,-43.06-29.9,-43.06 l0,0 z M633.1,159.6 V101 h12 v58.6 h -12 l0,0 z m -23.5,-23.5 v -11.5 h59 v11.5 h -59 l0,0 z" />
<path d="m1113,75.06 c -6,2.97-13,4.98-21,5.88 8,-4.62 14,-11.95 16,-20.68-7,4.28-15,7.4-23,9.07-7,-7.27-17,-11.81-28,-11.81-20,0-37,16.74-37,37.38 0,2.9 0,5.8 1,8.5-31,-1.5-58.7,-16.41-77.2,-39.03-3.2,5.52-5,11.95-5,18.8 0,12.93 6.6,24.43 16.6,31.13-6.1,-0.2-11.9,-1.9-16.9,-4.7 0,0.2 0,0.3 0,0.5 0,18.1 12.9,33.2 30,36.6-3.2,0.9-6.5,1.3-9.9,1.3-2.4,0-4.7,-0.2-7,-0.6 4.7,14.8 18.5,25.6 34.9,25.9-12.8,10.1-28.9,16-46.4,16-3,0-6,-0.1-8.9,-0.5 16.5,10.6 36.2,16.8 57.8,16.8 68,0 106,-57 106,-106.4 0,-1.6 0,-3.2 0,-4.8 7,-5.26 13,-11.84 18,-19.34 z" /></svg>
