<?xml version="1.0" encoding="UTF-8" standalone="no"?>
<svg
xmlns="http://www.w3.org/2000/svg"
version="1.1"
viewBox="17.5 -57.5 2328 1660"
stroke="black"
stroke-width="7"
fill="none">
<path d="m 1418.3,782.49 c 0,0 20.5,0.33 33.5,-17.52 13.1,-17.86 16.6,-71.05 37,-86.55 l 444.7,-336.76 151.2,-67 -5,-8.81 c 0,0 -31.6,17.37 -32,2.81 -0.1,-7.6 6.9,-32.34 9,-45 5,-30 7.1,-45.66 7,-59.99 l -11,-0.5 c 0,0 -9.3,129.93 -40.4,143.76"/>
<path d="m 839.26,370.85 h 563.64 c 14.1,0 12.8,30.41 31.3,30.41 h 18.7 267.6 l 22,-19 16,-109 29,-26 h 98.8 l 22.7,-15.93 57.1,-140.7 24.7,-22.28 17.1,-14.81 29,-13 H 2278" />
<path d="m 1041.9,1325.2 c 0,0 592.9,0 603.2,0 27,0 62.8,-7.6 62.9,-51.2 V 719.67 c 0.8,-20.08 7.3,-25.37 20.6,-32.29 l 22.8,-11.84 c 10.7,-5.49 14.7,-9.05 14.7,-20.57 0,0 0,-83.56 0,-88.81 0,-13.21 -9.6,-24.02 -15.3,-32.41 -26,-38.13 -60,-85.16 -92.8,-132.72 -10.8,-15.62 -13.5,-19.4 -13.5,-52.73 0,-16.14 0,-52.61 0,-69.17 0,-30.68 31.2,-40.56 45.6,-40.56 8.1,0 9.9,0 18.7,0" />
<path d="m 21,1325.2 c 0,0 239,0 514,0" />
<path d="m 912.09,781.23 c -12.9,0 -23.4,-11.61 -23.4,-36.04 l -81.2,-614.51 c -8.74,-44.93 27.49,-76.34 63.5,-76.34 h 257.61 c 18.6,0.23 70.8,15.59 92.6,29.82 l 207.6,124.45 c 42.1,27.56 62.6,63.45 62.6,118.67 0,17.29 -14.9,99.8 -21.3,121.4 -6.4,21.6 -17.3,58.8 -17.3,58.8 -6.3,23.63 -11.7,44.45 -11.6,61.19 0.2,23.93 0.6,186.62 0.6,186.62 0,14.32 -10.6,27.2 -23.5,27.2" />
<path d="m 635.25,1451.8 c -49.06,0 -101.01,-20.4 -101,-92 V 985.76 c -0.58,-41.1 -72.33,-53.6 -72.33,-100 l 0,-341.16 c 0,-13.33 17.61,-30.64 32.27,-30.31 H 1527.4 c 37.8,0 68.5,34.56 68.5,58.68 l -0.2,728.53 c -1,117.7 -82.1,150.3 -125.8,150.3 H 635.25 z" />
<path d="m 661.34,735.6 v 408.1 c 0.66,51 -167.4,80.9 -167.39,130.4 v 325.1"/>
<path d="m 882.89,-29.55 208.91,0.2 c 27.5,0.42 46.4,13.99 47.2,42.42 1.3,55.84 -36.7,45.06 -37,84.09 l 0,106.67 c 0,28.36 65.1,25.74 65.8,55.2 l -0.7,392.08 c 0.1,31.43 -13.6,34.84 -13.6,68.15 l 0.6,113.2 c 0.3,17.8 11.2,29.4 30.2,29.4 l 8.3,0" />
<path d="m 661.34,1143.7 c 0.29,20.4 9.47,51.4 40.76,51.4 h 1113.6 c 11.7,-0.7 17.7,10.6 17.6,18.5 v 144.1 c 0,9.6 5.1,16.4 20.6,16.5 h 42.8 c 13.3,0 25,9.3 36,21.5" />
<path d="m 2342,1031.5 h -190.9 l -86,-102.34 h -780.9 c -41.7,-0.6 -53.1,-67 -86.5,-67 l -49.8,0.6 H 404.17"/>
<line x1="1299.1" y1="-54" x2="1299.1" y2="1452.2" />
<path d="m 443.79,318.45 v 19.61 c 0.1,17.34 11.16,20.42 25,20.97 8.99,0.36 174.2,0 174.2,0 12.72,0.36 18.35,5.78 18.51,23.39 l -0.36,377.11 c 0.1,16.41 10.33,22.37 20.33,22.79 l 328.63,-0.14 c 20.3,0 31.5,9.3 31.9,25.98 l -0.1,702.44" />
<path d="m 1419.1,1047.2 c 0,35.7 -28.9,64.6 -64.5,64.6 H 976.89 c -35.7,0 -64.5,-28.9 -64.5,-64.6 V 792.4 c 0,-35.71 28.8,-64.66 64.5,-64.66 h 377.71 c 35.6,0 64.5,28.95 64.5,64.66 v 254.8 z" />
<polyline points="324.256,1180.017 336.692,1242.33 1925.343,1242.33" transform="translate(-133.01,-201.84)" />
</svg>
