<?xml version="1.0" encoding="UTF-8" standalone="no"?>
<svg
xmlns="http://www.w3.org/2000/svg"
version="1.1"
viewBox="0 0 1200 300"
style="fill:none;stroke:currentColor;stroke-width:5">
<path
d="m 651.19,225.44 c 0,0 5.55,0.14 9.07,-4.76 3.54,-4.85 4.5,-19.24 10.05,-23.44 l 120.49,-91.28 41.04,-18.151 -1.36,-2.387 c 0,0 -8.58,4.682 -8.67,0.759 -0.15,-2.06 1.83,-8.781 2.38,-12.204 1.42,-8.129 1.97,-12.38 1.9,-16.264 l -2.98,-0.126 c 0,0 -2.5,35.209 -10.96,38.943" />
<path
d="m 494.24,113.87 h 152.79 c 3.78,0 3.43,8.24 8.47,8.24 h 5.05 72.52 l 5.97,-5.16 4.36,-29.529 7.86,-7.041 h 26.76 l 6.14,-4.345 15.5,-38.129 6.69,-6.015 4.66,-4.048 7.85,-3.514 h 65.33" />
<path
d="m 549.15,372.53 c 0,0 160.68,0 163.52,0 7.29,0 17.03,-2.04 17.03,-13.87 V 208.42 c 0.19,-5.45 2.01,-6.89 5.6,-8.74 l 6.16,-3.23 c 2.9,-1.49 3.97,-2.46 3.97,-5.58 0,0 0,-22.65 0,-24.06 0,-3.59 -2.64,-6.51 -4.19,-8.8 -6.94,-10.33 -16.23,-23.09 -25.07,-35.96 -2.97,-4.24 -3.64,-5.26 -3.64,-14.3 0,-4.36 0,-14.257 0,-18.752 0,-8.319 8.38,-10.985 12.3,-10.985 2.22,0 2.71,0 5.06,0" />
<path
d="m 272.47,372.53 c 0,0 64.78,0 139.32,0" />
<path
d="m 513.98,225.1 c -3.51,0 -6.36,-3.15 -6.36,-9.77 L 485.64,48.778 c -2.37,-12.174 7.44,-20.709 17.19,-20.709 h 69.84 c 5.03,0.112 19.18,4.221 25.08,8.094 l 56.27,33.725 c 11.42,7.481 16.95,17.213 16.95,32.172 0,4.68 -4.01,27.05 -5.75,32.91 -1.76,5.85 -4.67,15.93 -4.67,15.93 -1.69,6.42 -3.16,12.05 -3.16,16.59 0.14,6.49 0.17,50.57 0.17,50.57 0,3.88 -2.87,7.38 -6.37,7.38" />
<path
d="m 438.94,406.84 c -13.3,0 -27.38,-5.53 -27.38,-24.93 V 280.53 c -0.15,-11.16 -19.59,-14.51 -19.59,-27.11 l 0,-92.47 c 0,-3.6 4.77,-8.3 8.75,-8.2 h 280.04 c 10.25,0 18.54,9.37 18.54,15.91 l -0.15,197.45 C 698.88,398 676.9,406.84 665.06,406.84 H 438.94 z" />
<path
d="m 446.02,212.73 v 110.61 c 0.19,13.82 -45.38,21.92 -45.38,35.33 v 88.12" />
<path
d="m 506.08,5.3598 56.58,0.1041 c 7.47,0.1183 12.61,3.7721 12.82,11.4881 0.33,15.125 -9.93,12.203 -10,22.799 l 0,28.888 c 0,7.707 17.62,6.998 17.81,14.961 l -0.19,106.28 c 0,8.52 -3.73,9.45 -3.73,18.49 l 0.22,30.66 c 0.14,4.81 3,7.96 8.17,7.96 l 2.26,0" />
<path
d="m 446.02,323.34 c 0.15,5.53 2.56,13.92 11.04,13.92 H 758.9 c 3.17,-0.18 4.79,2.87 4.73,5.03 v 39.04 c 0,2.6 1.42,4.45 5.59,4.48 h 11.64 c 3.57,0 6.77,2.51 9.73,5.83" />
<path
d="M 901.62,292.93 H 849.76 L 826.48,265.18 H 614.8 c -11.27,-0.16 -14.39,-18.15 -23.4,-18.15 l -13.54,0.16 H 376.33" />
<line
x1="618.89"
y1="-1.2897"
x2="618.89"
y2="406.96" />
<path
d="m 387.06,99.67 v 5.32 c 0.15,4.69 3.03,5.53 6.77,5.66 2.42,0.12 47.21,0 47.21,0 3.47,0.12 4.98,1.58 5.03,6.35 l -0.14,102.22 c 0.14,4.44 2.81,6.05 5.5,6.18 l 89.07,-0.16 c 5.51,0 8.52,2.53 8.65,7.04 L 549,422.66" />
<path
d="m 651.38,297.19 c 0,9.66 -7.84,17.49 -17.46,17.49 H 531.56 c -9.68,0 -17.5,-7.83 -17.5,-17.49 v -69.06 c 0,-9.69 7.82,-17.53 17.5,-17.53 h 102.36 c 9.62,0 17.46,7.84 17.46,17.53 v 69.06 z" />
<path
d="m 318.6,278.46 3.37,16.88 430.54,0" />
</svg>
